<svg xmlns="http://www.w3.org/2000/svg" viewBox="0 0 1000 1000" width="1000" height="1000">
  <rect width="1000" height="1000" fill="#000000"/>
  <path id="sash-fill" fill="#ffffff" d="M 438 500 C 486 482 594 470 675 482 C 704 520 706 575 680 638 C 654 704 631 790 606 884 C 598 915 590 942 582 963 C 536 970 475 969 431 958 C 407 893 397 817 400 748 C 403 657 414 566 438 500 Z"/>
  <path id="hand-fill" fill="#ffffff" d="M 101 630 C 151 611 230 607 315 601 C 363 598 397 608 416 634 C 430 654 427 683 408 711 C 384 746 344 771 291 784 C 239 796 184 788 139 763 C 107 746 87 725 81 701 C 77 681 84 651 101 630 Z"/>
  <ellipse id="globe-protection" cx="275" cy="535" rx="160" ry="115" fill="#000000"/>
</svg>
