<svg
									xmlns="http://www.w3.org/2000/svg"
									fill="none"
									viewBox="0 0 48 48"
									height="16"
									width="16"
									aria-label="Social Media icon"
								>
									<path
										fill="currentColor"
										fill-rule="evenodd"
										d="M24 0C10.7453 0 0 10.7453 0 24C0 34.6187 6.87375 43.5938 16.4062 46.7719C17.6062 46.9969 18.0656 46.2656 18.0656 45.6375C18.0656 45.075 18.0469 43.6313 18.0375 41.7375C11.3625 43.1906 9.95625 38.5031 9.95625 38.5031C8.86875 35.7188 7.29375 34.9875 7.29375 34.9875C5.12812 33.4969 7.45312 33.5344 7.45312 33.5344C9.84375 33.7031 11.1 35.9625 11.1 35.9625C13.2375 39.5906 16.7269 38.5406 18.1125 37.9312C18.3281 36.4688 18.9375 35.4188 19.6125 34.8281C14.2875 34.2281 8.68125 32.1656 8.68125 22.9125C8.68125 20.2688 9.6225 18.1125 11.1469 16.4156C10.8937 15.8156 10.0875 13.3594 11.3812 10.0406C11.3812 10.0406 13.3875 9.39375 17.9906 12.5156C19.8937 11.9906 21.9375 11.7281 23.9812 11.7188C26.025 11.7281 28.0687 11.9906 29.9719 12.5156C34.5656 9.39375 36.5719 10.0406 36.5719 10.0406C37.875 13.3594 37.0687 15.8156 36.8156 16.4156C38.3494 18.1125 39.2812 20.2688 39.2812 22.9125C39.2812 32.1938 33.6656 34.2188 28.3219 34.8C29.1656 35.5219 29.9156 36.9375 29.9156 39.1125C29.9156 42.2344 29.8875 44.7469 29.8875 45.6375C29.8875 46.275 30.3375 47.0156 31.5562 46.7719C41.1375 43.5844 48 34.6094 48 24C48 10.7453 37.2547 0 24 0Z"
										clip-rule="evenodd"
									></path>
								</svg>