<svg xmlns="http://www.w3.org/2000/svg" width="200" height="200" viewBox="0 0 200 200">
<!-- SVG created with Arrow, by QuiverAI (https://quiver.ai) -->
  <path d="m180.8 80.44c6.87-2.99 8.95-10.33 7.96-15.75-0.73-4.11-3.01-4.45-4.13-2.78-1.88 2.97-4.48 3.35-6.43 0.81-1.97-2.64-2.08-4.44-2.17-9.59-0.28-15.92-12.57-31.94-30.9-33.31l-0.28-0.03c-0.38-0.03-0.74-0.03-0.74-0.03-4.89-10.48-13.88-14.93-23.85-14.93-8.01 0-15.35 2.94-20.21 6.53-6.05-4.45-12.19-6.53-19.09-6.53-10.84 0-19.76 5.78-25.12 14.93-16.62 0-33.05 13.95-33.05 33.45 0 4.58-0.03 8.9-3.59 10.35-2.08 0.87-3.57-0.84-4.86-2.05-1.92-1.82-3.68-0.06-4.03 4.32-0.49 6.33 2.82 11.68 8.69 14.08-6.68 6.77-9.67 14.33-9.67 23.2 0 11.65 6.62 22.68 18.08 26.18 0.82 10.55 8.69 22.12 22.62 22.77-4.25 6.65-5.8 14.58-4.48 22.75 2.5 13.13 12.08 20.36 25.61 20.36 9.94 0 18.61-3.66 26.5-8.21 9.09 5.29 19.69 8.21 31 8.21 16.34 0 25.17-11.46 25.17-24.99 0-7.41-2.18-13.37-4.3-17.95 11.77-1.82 20.64-9.79 22.23-22.94 11.06-3.13 18.65-13.57 18.65-26.18 0-8.4-3.4-16.34-9.61-22.67zm-7.92 44.07c-6.65 1.62-11.91-0.85-11.91-5.8 0-3.6 3.03-5.42 5.99-4.03 1.22 0.59 1.8 1.41 2.19 2.23 0.61 1.36 1.64-0.29 1.08-2.66-0.98-4.04-4.41-4.83-7.41-4.33-4.92 0.82-6.44 5.84-6.37 8.69 0.16 6.33 5.52 10.45 11.82 10.68-0.89 9.64-8.02 18.07-20.12 18.33 1.76-3.69 1.37-9.34-0.03-12.77-0.72-1.33-2.02-0.51-2.18 1.57-0.79 8.96-5.68 16.83-21.54 21.99-1.08-0.89-2.44-1.75-3.84-2.27 3.86-4.51 4.51-9.22 3.46-11.92-0.42-1.11-1.14-0.49-1.46 0.74-1.21 4.05-3.45 7.9-5.66 10.64-3.13-0.92-6.47-1.24-9.43-1.24-5.02 0-9.64 0.82-12.73 1.78-5.06-4.74-10.28-7.42-16.39-8.71-0.62-2.47-1.24-3.61-2.06-3.61-0.79 0-1.14 1.89-1.14 3.9-4.39 0.32-8.34 1.98-10.65 5.14-5.35-3.16-9.64-8.48-10.53-16.73-0.26-2.31-2.6-2.41-3.12 1.09-0.65 4.32 0 7.71 1.4 10.5-11.2 0.69-18.72-8.01-19.8-18.3 6.87-0.58 11.29-5.16 11.03-11.49-0.25-5.22-3.68-8.52-8.7-8.26-3.73 0.19-5.71 3.04-5.71 5.51 0 1.79 1.08 2.48 1.83 1.24 1.66-2.86 4.16-3.31 6.4-1.82 2.37 1.56 2.56 5.51 0.45 7.98-2.96 3.43-9 3.24-13.19 0.57-7.24-4.45-11-11.39-11-20.35 0-9.77 6.49-18.73 14.8-23.18 3.72-2.08 4.9-3.74 4.35-4.98-0.55-1.33-2.24-0.19-3.64 0.43-7.24 3.24-13.25 0.13-14.61-7.17 7.24 1.24 12.59-3.44 12.59-12.17 0-17.52 12.91-30.82 29.18-30.82 6.05 0 12.82 2.11 13.44 6.19 0.45 2.86-1.66 4.38-3.64 4.38-1.37 0-2.19-0.82-2.74-1.04-1.24-0.48-1.63 1.37 0.1 2.77 4.08 3.26 10.06-0.4 10.06-5.79 0-6.51-5.69-9.23-13.1-10.82 4.96-7.74 12.58-11.79 20.72-11.79 6.52 0 12.08 2.11 15.81 5.44-8.6 8.83-9.9 21.49-5.42 35.31-7.62-1.65-10.55-7.85-12.37-13.5-0.72-2.34-1.64-0.29-1.32 2.84 0.35 3.46 1.39 6.32 2.79 9.02-12.29 0.49-23.91 9.09-29.79 24.37-1.92 5.29-1.92 10.88-14.41 18.37-5.49 3.06-12.39 5.56-12.39 13.49 0 0.96 0.79 1.58 1.18 0.37 2.11-5.42 6.3-7.89 12.79-10.71 5.61-2.5 8.34-4.58 10.23-6.69-2.02 4.99-4.2 9.71-4.2 17.89 0 18.76 19.09 36.66 55.98 36.66 28.9 0 55.81-13.98 55.81-37.15 0-7.41-2.86-11.92-4.19-17.11 5.78 5.75 12.4 7.37 16.32 10.09 3.27 2.31 4.96 4.55 6.07 7.41 0.59 1.56 1.24 0.26 0.95-2.21-1.14-8.79-8.93-10.35-14.56-14.3-8.2-5.68-9.89-10.49-11.19-15.1-4.11-12.05-12.35-20.58-23.41-24.27-1.85-6.11-6.88-9.71-11.8-8.38-2.76 0.76-3.02 2.84-0.55 2.84 5.65 0 8.02 4.52 8.02 8.97 0 4.55-2.86 7.85-5.62 9.05 0.99-6.8-3.87-11.79-10.55-11-2.6 0.32-4.39 1.56-5.5 3.22-5.39-4.81-6.82-11.58-6.53-18.92 0.65-13.33 11.93-26 26.41-25.68 8.6 0 16.02 4.08 20.24 10.88-8.11 1.11-13.47 4.77-13.47 11 0 5.65 6.36 8.71 10.25 6.04 2.3-1.53 2.01-3.77 0.58-3.15-2.76 1.21-5 0.89-5.68-1.72-1.4-5.52 6.22-7.37 12.43-7.37 12.85 0 27.21 10.2 27.53 26.94 0.16 6.56 0.85 10.16 4.74 13.45 2.6 2.28 6.16 2.54 8.63 1.78 0.32 4.99-5.2 11.89-13.21 8.23-1.4-0.73-3.19-2.03-3.81-0.73-0.79 1.76 2.51 4.23 5.47 5.89 8.43 4.99 12.82 14.31 12.82 22.87 0 9.37-4.99 18.07-13.27 21.27zm-72.18 59.43c8.25-5.22 14.19-12.93 27.4-15.92 2.08-0.49 5.48-0.55 5.48-2.01 0-1.14-1.69-1.3-3.93-1.59-1.69-0.26-1.98-0.91-2.5-2.11 7.11-2.54 12.7-5.87 17.56-10.08 4.19 4.99 5.75 11.83 5.36 18.59-1.11 12.25-8.28 19.77-21.81 19.77-9.77 0-19.31-2.85-27.56-6.65zm-25.94-20.34c-5.84 2.31-8.8-1.19-8.7-4.35 0.19-4.45 4.88-6.89 10.1-6.89 5.09 0 9.41 2.25 13.49 5.34-5.49 1.65-10.71 4.02-14.89 5.9zm-24.2 3.09c0.62-5.88 2.89-10.97 4.39-14 2.5 2.21 4.97 3.93 6.92 5.04-1.29 6.59 3.5 11.34 10.09 10.92 4.19-0.26 5.11-1.91 12.25-4.55 9.53-3.66 16.02-5.68 23.54-5.68 7.42 0 13.5 2.4 16.26 7.29-10.84 3.53-17.08 12.36-29.24 19.02-8.01 4.55-14.6 5.91-23.52 5.91-12.75 0-22.13-8.11-20.69-23.95z" fill="#000"/>
  <path d="m120.3 18.01c-9.02-0.99-14.38 7.16-13.96 15.27 0.19 2.14 1.69 1.98 1.88 0.62 1.43-7.27 6.42-12.19 12.21-14.27 1.36-0.52 1.91-1.37-0.13-1.62z" fill="#000"/>
  <path d="m124.8 53.31c-0.42 6.8-7.22 13.6-13.13 13.41-2.63-0.1-2.98-1.56-2.09-3.61 1.82-4.05-0.55-8.5-4.47-7.71-2.63 0.55-3.96 2.73-5.52 3.72-1.21 0.73-2.9-1.61-4.56-2.75-5.23-3.43-9.34-4.22-13.1-4.22-13.69 0-25.55 12.97-27.82 26.46-1.21 7.06-1.57 9.6-4.23 15.22-1.79 3.95-2.08 7.28-2.08 11.2 0 15.99 17.53 32.19 51.86 32.19 25.02 0 51.42-11.81 51.42-32.44 0-6.87-4.29-13.5-4.9-19.15-1.4-13.56-7.99-27.87-21.38-32.32z" fill="#FEFFFE"/>
  <path d="m106.1 96.51c-3.3 0-5.06 1.11-7.88 0.79-2.99-0.35-4.2-0.79-5.34-0.79-3.66 0-4.48 2.24-3.66 4.41 1.11 3.06 6.92 6.36 9 7.15v4.25c-2.6 2.89-5 3.81-8.3 3.72-4.29-0.16-6.69-2.27-7.8-5.73-0.69-1.69-3.29-1.69-3.1 0.52 0.65 4.89 5.71 8.81 11.76 8.68 4.42-0.1 6.85-1.69 9-3.47 2.4 2.18 5.33 3.54 9.55 3.44 5.88-0.19 10-3.82 11.14-8.17 0.46-2.28-2.3-3-3.12-0.79-1.56 4.29-4.52 5.65-8.5 5.59-3.73-0.1-6.72-1.89-7.77-3.78v-4.12c3.76-1.59 8.15-4.72 9.45-7.61 0.95-2.27-1.1-4.09-4.43-4.09z" fill="#000"/>
  <path d="m73.69 82.62c-4.76 0.59-7.72 5.1-7.66 9.99-1.26 0.62-3.18 1.14-4.42 2v0.72c6.11-1.3 11.5-0.78 16.66 2.18 0.65 0.35 1.04-0.6 0.55-1.36 3.43-4.89 0.74-14.21-5.13-13.53zm2.08 7.29c-1.66 0-2.15-1.17-2.15-2.12 0-1.27 0.89-2.16 2.03-2.16 1.26 0 2.05 1.02 2.05 2.09 0 1.08-0.89 2.19-1.93 2.19z" fill="#000"/>
  <path d="m133.9 92.61c0.06-4.89-2.9-9.4-7.66-9.99-5.87-0.68-8.56 8.64-5.13 13.53-0.49 0.76-0.23 1.77 0.42 1.36 4.32-2.83 9.15-3.25 15.95-2.18v-0.72c-0.89-0.89-2.29-1.48-3.58-2zm-9.71-2.7c-1.3 0-2.19-1.08-2.19-2.19 0-1.2 0.89-2.09 2.03-2.09 1.27 0 2.06 1.02 2.06 2.09 0 1.08-0.89 2.19-1.9 2.19z" fill="#000"/>
  <path d="m66.31 45.71c-3.33-6.55-9.34-9.68-15.99-9.55-10.2 0.26-17.2 9.06-17.07 17.99 0.06 7.03 3.79 13.01 11.06 16.28 2.18 1.02 3.61 0 4.1-2.11 2.82-8.11 8.7-14.5 16.32-19.11 1.95-1.04 2.34-2 1.58-3.5zm-21.25 20.3c-5.09-3.19-7.33-8.08-7.2-12.7 0.25-7.47 5.81-13.12 12.46-13.12 4.86 0 8.59 2.47 10.7 6.26-1.76 1.11-3.06 2-4.36 2.89-2.27-3.27-4.93-4.51-8.06-4.28-3.57 0.29-5.49 2.66-5.68 4.05-0.19 1.05 0.59 0.6 0.98 0.25 2.34-2.08 6.86-2.34 10.06 1.48-4.25 4.15-6.75 7.84-8.9 15.17z" fill="#000"/>
  <path d="m148.7 36.16c-6.65-0.13-12.66 3.75-15.62 9.55-0.92 2.01 0.16 2.9 2.01 4.01 7.21 4.19 13.35 10.85 16.55 18.6 0.82 2.11 2.02 2.56 4.17 1.29 6.65-3.79 10.94-9.83 10.68-17.41-0.45-8.96-7.59-15.84-17.79-16.04zm6.16 29.85c-2.66-6.2-6.22-10.95-9.42-14.29 2.34-3.59 6.83-4.51 9.82-2.61 0.89 0.55 1.38 0.19 0.79-0.98-1.95-3.69-8.78-5.9-13.61 0.66-1.46-1.36-2.79-2.31-3.77-2.89 2.5-3.6 6.23-5.78 10.28-5.71 7.37 0.13 12.86 6.62 12.86 13.64 0 4.78-2.47 8.99-6.95 12.18z" fill="#000"/>
  <path d="m74.51 69.61c-4.26 0-7.08 2.67-8.29 4.29-1.3 1.92 0.72 3.81 2.7 2.6 2.24-1.36 3.19-2.28 5.79-2.6 2.99-0.39 3.05-4.29-0.2-4.29z" fill="#000"/>
  <path d="m126.1 69.32c-3.53-0.26-3.85 4.51-0.39 4.9 2.5 0.29 3.48 1.21 5.18 2.19 2.37 1.36 3.83-1.4 2.63-2.99-1.53-2.15-4.73-3.91-7.42-4.1z" fill="#000"/>
</svg>