<svg xmlns="http://www.w3.org/2000/svg" width="32" height="32" viewBox="0 0 512 512" fill="none">
  <!-- large star (top right) -->
  <path d="M310 90 C310 90 330 180 330 220 C330 260 310 350 310 350 C310 350 290 260 290 220 C290 180 310 90 310 90 Z" stroke="#000" stroke-width="18" stroke-linecap="round" stroke-linejoin="round" fill="none"/>
  <path d="M200 220 C200 220 260 200 310 200 C360 200 420 220 420 220 C420 220 360 240 310 240 C260 240 200 220 200 220 Z" stroke="#000" stroke-width="18" stroke-linecap="round" stroke-linejoin="round" fill="none"/>
  <!-- small star (bottom left) -->
  <path d="M150 280 C150 280 162 340 162 365 C162 390 150 450 150 450 C150 450 138 390 138 365 C138 340 150 280 150 280 Z" stroke="#000" stroke-width="18" stroke-linecap="round" stroke-linejoin="round" fill="none"/>
  <path d="M80 365 C80 365 118 350 150 350 C182 350 220 365 220 365 C220 365 182 380 150 380 C118 380 80 365 80 365 Z" stroke="#000" stroke-width="18" stroke-linecap="round" stroke-linejoin="round" fill="none"/>
  <!-- tiny star (top left) -->
  <path d="M140 70 C140 70 148 110 148 128 C148 146 140 186 140 186 C140 186 132 146 132 128 C132 110 140 70 140 70 Z" stroke="#000" stroke-width="14" stroke-linecap="round" stroke-linejoin="round" fill="none"/>
  <path d="M90 128 C90 128 112 118 140 118 C168 118 190 128 190 128 C190 128 168 138 140 138 C112 138 90 128 90 128 Z" stroke="#000" stroke-width="14" stroke-linecap="round" stroke-linejoin="round" fill="none"/>
</svg>
